<svg xmlns="http://www.w3.org/2000/svg" viewBox="0 0 566 421.1"><g id="Layer_2" data-name="Layer 2"><g id="Layer_1-2" data-name="Layer 1"><path d="M296.9,1V419.9H1.2V1H296.9m1-1H.2V420.9H297.9V0Z" fill="#ccc"/><polyline points="211.3 0.6 211.3 298.3 0.8 298.3" fill="none" stroke="#ccc" stroke-miterlimit="10"/><polyline points="543.3 78.6 543.3 376.3 332.8 376.3" fill="none" stroke="#ccc" stroke-miterlimit="10" stroke-dasharray="6"/><line x1="251.1" y1="0.9" x2="251.1" y2="3.9" fill="none" stroke="#ccc" stroke-miterlimit="10"/><line x1="251.1" y1="9.8" x2="251.1" y2="349.2" fill="none" stroke="#ccc" stroke-miterlimit="10" stroke-dasharray="5.9 5.9"/><polyline points="251.1 352.2 251.1 355.2 248.1 355.2" fill="none" stroke="#ccc" stroke-miterlimit="10"/><line x1="242.2" y1="355.2" x2="6.9" y2="355.2" fill="none" stroke="#ccc" stroke-miterlimit="10" stroke-dasharray="5.96 5.96"/><line x1="4" y1="355.2" x2="1" y2="355.2" fill="none" stroke="#ccc" stroke-miterlimit="10"/><text transform="translate(10.7 409.8)" font-size="9.9" fill="#ccc" font-family="IBMPlexMono-Regular, IBM Plex Mono" letter-spacing="-0.2em"><tspan xml:space="preserve"> 16.5 × 23.4 inches</tspan></text><text transform="translate(339.7 409.8)" font-size="9.9" fill="#ccc" font-family="IBMPlexMono-Regular, IBM Plex Mono" letter-spacing="-0.2em"><tspan xml:space="preserve"> 13 × 19 inches</tspan></text><text transform="translate(10.7 346.8)" font-size="9.9" fill="#ccc" font-family="IBMPlexMono-Regular, IBM Plex Mono" letter-spacing="-0.2em">13.9 × 19.7 inches</text><text transform="translate(10.7 289.8)" font-size="9.9" fill="#ccc" font-family="IBMPlexMono-Regular, IBM Plex Mono" letter-spacing="-0.2em"><tspan xml:space="preserve"> 11.7 × 16.5 inches</tspan></text><text transform="translate(339.7 365.8)" font-size="9.9" fill="#ccc" font-family="IBMPlexMono-Regular, IBM Plex Mono" letter-spacing="-0.2em"><tspan xml:space="preserve"> 11.7 × 16.5 inches</tspan></text><text transform="translate(10.7 243.8)" font-size="9.9" fill="#ccc" font-family="IBMPlexMono-Regular, IBM Plex Mono" letter-spacing="-0.2em">9.8 × 13.9 inches</text><text transform="translate(10.7 202.8)" font-size="9.9" fill="#ccc" font-family="IBMPlexMono-Regular, IBM Plex Mono" letter-spacing="-0.2em">8.3 × 11.7 inches</text><text transform="translate(10.7 168.8)" font-size="9.9" fill="#ccc" font-family="IBMPlexMono-Regular, IBM Plex Mono" letter-spacing="-0.2em">6.9 × 9.8 inches</text><text transform="translate(269 410.6)" font-size="16" fill="#ccc" font-family="MyriadPro-Regular, Myriad Pro">A2</text><text transform="translate(223 346.6)" font-size="16" fill="#ccc" font-family="MyriadPro-Regular, Myriad Pro">B3</text><text transform="translate(183 289.6)" font-size="16" fill="#ccc" font-family="MyriadPro-Regular, Myriad Pro">A3</text><text transform="translate(515 369.6)" font-size="16" fill="#ccc" font-family="MyriadPro-Regular, Myriad Pro">A3</text><text transform="translate(528 412.6)" font-size="16" fill="#ccc" font-family="MyriadPro-Regular, Myriad Pro">A3+</text><text transform="translate(148 243.6)" font-size="16" fill="#ccc" font-family="MyriadPro-Regular, Myriad Pro">B4</text><text transform="translate(123 202.6)" font-size="16" fill="#ccc" font-family="MyriadPro-Regular, Myriad Pro">A4</text><text transform="translate(98 168.6)" font-size="16" fill="#ccc" font-family="MyriadPro-Regular, Myriad Pro">B5</text><polyline points="177.2 0.7 177.2 250.8 0 250.8" fill="none" stroke="#ccc" stroke-miterlimit="10" stroke-dasharray="6"/><polyline points="150 0.5 150 211 1.2 211" fill="none" stroke="#ccc" stroke-miterlimit="10"/><polyline points="125.4 1.2 125.4 178.3 0.7 178.3" fill="none" stroke="#ccc" stroke-miterlimit="10" stroke-dasharray="6"/><rect x="332.4" y="78.3" width="233.1" height="342.28" fill="none" stroke="#ccc" stroke-miterlimit="10"/></g></g></svg>