<svg xmlns="http://www.w3.org/2000/svg" viewBox="0 0 1440 286.1"><g id="Layer_2" data-name="Layer 2"><g id="Layer_1-2" data-name="Layer 1"><path d="M105,286.1q-36.4,0-61.8-12.5A141.4,141.4,0,0,1,0,241.3l39.6-40.1q28.2,31.4,69.4,31.4c14.8,0,25.7-3,32.9-9s10.7-14,10.7-24c0-7.6-2.2-13.9-6.4-19s-12.8-8.6-25.7-10.4l-27.4-3.6q-43.9-5.5-64.4-26.5C15.1,126,8.3,107.4,8.3,84.1A79.8,79.8,0,0,1,15.5,50,74.4,74.4,0,0,1,35.9,23.4C44.7,16,55.5,10.2,68.4,6.1S95.8,0,112.1,0q31.3,0,55.1,9.9a110.8,110.8,0,0,1,40.8,29L168,79.4a79,79,0,0,0-24-18.6c-9.3-4.9-21.2-7.3-35.4-7.3s-23.5,2.3-30.1,7.1-9.9,11.2-9.9,19.6,2.5,16.2,7.7,20.4,13.5,7.2,25.1,9l27.4,4.3q42.8,6.8,63.4,26.4t20.6,55.8a92.3,92.3,0,0,1-7.1,36.4,77.9,77.9,0,0,1-20.8,28.6c-9.2,7.9-20.5,14.1-33.9,18.5S122.2,286.1,105,286.1Z" fill="#e7e3e0"/><path d="M368.9,58.3v223H308.7V58.3H233.8V4.8h210V58.3Z" fill="#e7e3e0"/><path d="M542.1,4.8V174.4c0,19.5,3.8,34.1,11.5,43.7S574,232.6,592,232.6s30.8-4.8,38.5-14.5,11.4-24.2,11.4-43.7V4.8h58.7V168c0,20.4-1.9,38-5.8,52.9s-10.1,27.2-18.8,36.9-19.9,16.7-33.7,21.4-30.5,6.9-50.3,6.9-36.6-2.3-50.3-6.9-25-11.8-33.7-21.4-15-22-18.8-36.9-5.8-32.5-5.8-52.9V4.8Z" fill="#e7e3e0"/><path d="M760,4.8H864.2c18.3,0,34.9,2.9,50,8.7a100.9,100.9,0,0,1,38.4,25.9q15.9,17.3,24.6,43.2t8.7,60.5c0,22.9-2.9,43.1-8.7,60.4s-14,31.7-24.6,43.2a100.9,100.9,0,0,1-38.4,25.9c-15.1,5.8-31.7,8.7-50,8.7H760ZM864.2,227.9c18,0,32.1-5.1,42.4-15.1s15.5-26.2,15.5-48.4V121.7q0-33.3-15.5-48.4c-10.3-10-24.4-15-42.4-15H820.3V227.9Z" fill="#e7e3e0"/><path d="M1025.5,281.3V233.4h35.7V52.7h-35.7V4.8h131.6V52.7h-35.7V233.4h35.7v47.9Z" fill="#e7e3e0"/><path d="M1318.3,286.1c-18.2,0-34.8-3-49.9-9.1a99.9,99.9,0,0,1-38.4-27.2q-15.9-18-24.6-44.7c-5.8-17.9-8.7-38.5-8.7-62s2.9-44.2,8.7-62.1,14-32.7,24.6-44.7a99.9,99.9,0,0,1,38.4-27.2C1283.5,3,1300.1,0,1318.3,0s34.9,3,50,9.1a100.6,100.6,0,0,1,38.4,27.2q15.9,18,24.6,44.7c5.8,17.9,8.7,38.5,8.7,62.1s-2.9,44.1-8.7,62-14,32.7-24.6,44.7a100.6,100.6,0,0,1-38.4,27.2C1353.2,283.1,1336.6,286.1,1318.3,286.1Zm0-53.5q27.5,0,42.6-17.8c10.2-11.9,15.3-29,15.3-51.1V122.4c0-22.1-5.1-39.2-15.3-51.1s-24.3-17.8-42.6-17.8-32.4,5.9-42.6,17.8-15.2,29-15.2,51.1v41.3c0,22.1,5.1,39.2,15.2,51.1S1300.1,232.6,1318.3,232.6Z" fill="#e7e3e0"/></g></g></svg>